HIERARCHY
ROOT Hips
{
	OFFSET -3.958830 18.904000 13.208200
	CHANNELS 6 Xposition Yposition Zposition Zrotation Yrotation Xrotation 
	JOINT LHipJoint
	{
		OFFSET 0.000000 0.000000 0.000000
		CHANNELS 3 Zrotation Yrotation Xrotation
		JOINT LeftUpLeg
		{
			OFFSET 1.800000 -1.400000 0.085000
			CHANNELS 3 Zrotation Yrotation Xrotation
			JOINT LeftLeg
			{
				OFFSET 2.215000 -6.000000 0.000000
				CHANNELS 3 Zrotation Yrotation Xrotation
				JOINT LeftFoot
				{
					OFFSET 2.500000 -6.900000 0.000000
					CHANNELS 3 Zrotation Yrotation Xrotation
					JOINT LeftToeBase
					{
						OFFSET 0.200000 -0.500000 1.950000
						CHANNELS 3 Zrotation Yrotation Xrotation
						End Site
						{
							OFFSET 0.000000 0.000000 0.000000
						}
					}
				}
			}
		}
	}
	JOINT RHipJoint
	{
		OFFSET 0.000000 0.000000 0.000000
		CHANNELS 3 Zrotation Yrotation Xrotation
		JOINT RightUpLeg
		{
			OFFSET -1.800000 -1.400000 0.085000
			CHANNELS 3 Zrotation Yrotation Xrotation
			JOINT RightLeg
			{
				OFFSET -2.215000 -6.000000 0.000000
				CHANNELS 3 Zrotation Yrotation Xrotation
				JOINT RightFoot
				{
					OFFSET -2.500000 -6.900000 0.000000
					CHANNELS 3 Zrotation Yrotation Xrotation
					JOINT RightToeBase
					{
						OFFSET -0.200000 -0.500000 1.950000
						CHANNELS 3 Zrotation Yrotation Xrotation
						End Site
						{
							OFFSET 0.000000 0.000000 0.000000
						}
					}
				}
			}
		}
	}
	JOINT LowerBack
	{
		OFFSET 0.000000 0.000000 0.000000
		CHANNELS 3 Zrotation Yrotation Xrotation
		JOINT Spine
		{
			OFFSET -0.087000 1.940000 -0.288900
			CHANNELS 3 Zrotation Yrotation Xrotation
			JOINT Spine1
			{
				OFFSET 0.000000 1.950000 0.060000
				CHANNELS 3 Zrotation Yrotation Xrotation
				JOINT Neck
				{
					OFFSET 0.000000 0.000000 0.000000
					CHANNELS 3 Zrotation Yrotation Xrotation
					JOINT Neck1
					{
						OFFSET 0.000000 1.600000 0.340000
						CHANNELS 3 Zrotation Yrotation Xrotation
						JOINT Head
						{
							OFFSET 0.000000 1.667000 -0.240000
							CHANNELS 3 Zrotation Yrotation Xrotation
							End Site
							{
								OFFSET 0.000000 0.000000 0.000000
							}
						}
					}
				}
				JOINT LeftShoulder
				{
					OFFSET 0.000000 0.000000 0.000000
					CHANNELS 3 Zrotation Yrotation Xrotation
					JOINT LeftArm
					{
						OFFSET 2.700000 1.550000 -0.730000
						CHANNELS 3 Zrotation Yrotation Xrotation
						JOINT LeftForeArm
						{
							OFFSET 5.450000 0.000000 0.000000
							CHANNELS 3 Zrotation Yrotation Xrotation
							JOINT LeftHand
							{
								OFFSET 3.450000 0.000000 0.000000
								CHANNELS 3 Zrotation Yrotation Xrotation
								JOINT LeftHandIndex1
								{
									OFFSET 0.750000 0.000000 0.000000
									CHANNELS 3 Zrotation Yrotation Xrotation
									End Site
									{
										OFFSET 0.000000 0.000000 0.000000
									}
								}
							}
						}
					}
				}
				JOINT RightShoulder
				{
					OFFSET 0.000000 0.000000 0.000000
					CHANNELS 3 Zrotation Yrotation Xrotation
					JOINT RightArm
					{
						OFFSET -2.700000 1.550000 -0.730000
						CHANNELS 3 Zrotation Yrotation Xrotation
						JOINT RightForeArm
						{
							OFFSET -5.450000 0.000000 0.000000
							CHANNELS 3 Zrotation Yrotation Xrotation
							JOINT RightHand
							{
								OFFSET -3.450000 0.000000 0.000000
								CHANNELS 3 Zrotation Yrotation Xrotation
								JOINT RightHandIndex1
								{
									OFFSET -0.750000 0.000000 0.000000
									CHANNELS 3 Zrotation Yrotation Xrotation
									End Site
									{
										OFFSET 0.000000 0.000000 0.000000
									}
								}
							}
						}
					}
				}
			}
		}
	}
}
MOTION
Frames: 14
Frame Time: 0.016667
-0.009790 17.489640 -8.172570 -5.419526 -30.711494 12.285546 -15.292788 12.646122 4.841607 6.024169 -7.216494 -38.856129 -6.509884 9.910131 36.911788 0.061092 6.547718 2.040158 0.307610 0.263650 0.307400 18.111211 -10.585961 2.209824 -13.260403 2.987249 -15.225828 10.230220 -9.833117 32.579117 -0.461633 -5.522157 2.340213 0.214360 -0.043680 0.045100 -2.992486 -2.252034 -8.127494 4.487076 2.721625 18.474989 0.177817 4.346741 -0.806400 0.845916 -6.629873 -8.004367 -13.773411 9.474253 31.814672 -4.379500 9.032610 -12.176630 -31.065227 -8.461887 1.144715 -41.933938 -5.141447 -2.215595 -23.389766 -10.069645 0.337095 -3.716033 3.006743 0.271030 -0.001330 0.101410 0.037330 29.625354 15.664205 5.233200 41.965180 7.720769 -3.230786 21.716485 11.593375 0.548608 2.465602 -1.307765 -0.103870 0.146410 -0.075450 -0.172730 
-0.011800 17.435500 -8.217560 -5.269183 -32.025469 12.044084 -15.333565 12.567002 4.980901 6.690277 -7.366896 -39.938878 -6.806631 10.651051 38.956436 0.153226 7.026574 1.867820 0.311950 0.269320 0.311990 18.090031 -10.525706 2.165352 -13.743692 3.120368 -15.385073 10.016555 -9.911322 33.262105 -0.479480 -5.590494 2.313051 0.207410 -0.054710 0.049030 -2.928297 -2.284126 -8.204054 3.980709 3.111835 19.123021 0.396898 4.757809 -0.963390 0.852835 -6.743728 -8.220348 -14.138477 9.670568 32.299721 -4.400520 9.146100 -12.391330 -30.987142 -8.641573 1.219493 -41.656087 -5.036938 -2.377370 -23.781394 -10.731993 0.467392 -3.700548 3.012301 0.278910 -0.012140 0.116170 0.037840 29.597721 16.147862 5.459439 41.490211 7.715434 -3.251053 22.181937 11.557853 0.580392 2.467839 -1.303797 -0.093270 0.143180 -0.079060 -0.170540 
-0.013510 17.327830 -8.305480 -5.036911 -34.040224 11.684719 -15.405329 12.401639 5.207172 7.991407 -7.563682 -41.803068 -7.332703 11.955082 42.261275 0.288878 7.841195 1.578049 0.326350 0.285150 0.329230 18.061510 -10.372473 2.121050 -14.877448 3.401077 -15.813392 10.447068 -10.381327 34.356537 -0.527706 -5.790368 2.230869 0.209270 -0.077650 0.048090 -2.852311 -2.361683 -8.338684 3.328470 3.528359 20.279600 0.640508 5.221998 -1.187939 0.853448 -7.040135 -8.499440 -14.885878 10.155296 32.716098 -4.621590 9.466970 -13.278080 -30.673762 -8.826527 1.304104 -41.007662 -4.895423 -2.648112 -25.241599 -11.945874 0.739282 -3.671295 3.018217 0.305350 -0.033640 0.141060 0.035360 29.359609 16.823361 5.695773 40.554981 7.961720 -3.248638 24.010287 11.700482 0.710907 2.463171 -1.303276 -0.089430 0.147720 -0.085080 -0.177270 
-0.008140 17.198520 -8.414000 -4.789589 -35.813345 11.246441 -15.487692 12.201011 5.463241 9.339758 -7.823996 -43.927674 -7.781292 13.322364 45.711874 0.448755 8.670696 1.282116 0.343250 0.302480 0.357690 18.032380 -10.160257 2.112498 -16.143887 3.786473 -16.487966 11.350477 -11.188854 35.881200 -0.608350 -6.103286 2.101427 0.202500 -0.126140 0.051200 -2.781819 -2.478641 -8.524136 2.764722 3.805919 21.893782 0.725228 5.583023 -1.580549 1.005505 -7.243280 -8.964438 -15.586829 10.628351 33.611863 -5.199120 9.947010 -14.339200 -30.465544 -9.346254 1.500587 -40.179762 -4.688712 -2.979222 -26.401132 -13.182285 1.029396 -3.625504 3.031243 0.337170 -0.069000 0.180540 0.023550 28.961082 17.751815 6.069129 39.829184 8.077827 -3.420787 25.320119 12.270929 0.893979 2.468861 -1.299452 -0.072450 0.133820 -0.095470 -0.188610 
0.000970 17.059900 -8.525380 -4.518470 -37.106807 10.717397 -15.569556 11.973263 5.738828 10.789290 -8.191174 -46.150081 -8.215752 14.731737 49.241356 0.615289 9.527986 0.997452 0.349280 0.307270 0.374530 18.011968 -9.911078 2.124761 -17.471420 4.175908 -17.327290 12.410513 -12.216263 37.694159 -0.699724 -6.502859 1.951648 0.195960 -0.155420 0.046320 -2.743999 -2.625445 -8.731169 2.541559 3.829284 23.906187 0.646004 5.785939 -2.326868 1.160060 -7.486301 -9.421102 -16.350941 11.024497 34.197852 -5.642450 10.223860 -15.110000 -30.851242 -9.965397 1.583201 -38.513748 -4.429573 -3.231751 -27.583926 -14.244296 1.333134 -3.585324 3.035826 0.363990 -0.094270 0.204770 0.014830 29.162860 18.651320 6.537768 38.430246 7.633703 -3.743523 26.699395 13.021355 1.093029 2.460151 -1.295063 -0.069010 0.134080 -0.099050 -0.198030 
0.016580 16.915550 -8.642920 -4.190944 -38.239403 9.935609 -15.665991 11.735616 6.009936 12.338082 -8.594507 -48.301988 -8.903779 16.351349 52.804452 0.805978 10.418477 0.712235 0.370540 0.330910 0.398020 17.988777 -9.594660 2.168435 -18.982272 4.670480 -18.443023 13.575990 -13.636162 40.410566 -0.842296 -7.080156 1.744533 0.197760 -0.192470 0.040040 -2.694524 -2.865240 -8.954061 2.233484 3.661562 26.305209 0.820144 5.775071 -3.229843 1.249187 -7.958074 -9.946019 -17.759766 11.685853 34.873124 -5.956250 10.411310 -16.118000 -31.271094 -10.644800 1.669078 -37.085906 -4.352120 -3.366815 -28.481125 -14.937523 1.557187 -3.534364 3.039709 0.394400 -0.129480 0.238160 0.012410 29.604500 19.701526 7.002514 36.569925 7.371642 -3.957439 28.017248 13.549666 1.284449 2.453448 -1.288760 -0.059110 0.137380 -0.111580 -0.203870 
0.036090 16.779040 -8.765100 -4.028843 -39.190407 9.066625 -15.760832 11.510146 6.247030 14.025310 -8.846887 -50.197929 -9.680101 17.999323 55.979915 0.987085 11.234760 0.454779 0.395060 0.354780 0.432480 17.969779 -9.251286 2.260966 -20.136712 5.341295 -20.034617 14.367814 -15.185850 44.016191 -1.024213 -7.761990 1.510183 0.197730 -0.244470 0.034190 -2.647999 -3.120455 -9.187921 2.056347 3.587547 29.369796 0.957637 5.934582 -4.580691 1.495395 -8.079965 -10.558433 -18.535459 12.137497 35.934226 -6.404970 10.679310 -17.375710 -32.156714 -11.731850 1.641292 -34.979934 -4.677431 -3.236503 -29.895494 -14.413855 1.573864 -3.474125 3.039945 0.435320 -0.172290 0.280580 0.005420 30.289847 20.874796 7.626120 34.831639 6.672800 -4.321625 28.835366 14.170139 1.452817 2.441300 -1.278560 -0.048820 0.133650 -0.128690 -0.217600 
0.051260 16.659890 -8.888680 -3.738472 -39.870731 7.994085 -15.834642 11.264445 6.437543 15.684985 -8.977587 -51.751882 -10.655227 19.701205 58.644867 1.163992 11.976347 0.229147 0.411170 0.366630 0.452820 17.968775 -8.903608 2.412199 -21.377086 6.069784 -21.779855 15.469120 -16.950588 47.467662 -1.221864 -8.491078 1.267613 0.190020 -0.288460 0.033300 -2.654766 -3.294424 -9.418662 2.060034 3.422143 32.707285 0.700986 6.085556 -6.273405 1.787484 -8.255096 -11.287875 -19.556392 12.485417 37.291412 -6.599660 10.526180 -18.147140 -33.341165 -12.787810 1.684402 -32.692386 -4.286449 -3.433369 -31.073566 -14.736385 1.741909 -3.405483 3.049336 0.472190 -0.213210 0.316640 -0.002170 31.217114 22.058027 8.219635 33.365113 5.960265 -4.593575 29.621260 14.197038 1.495547 2.431340 -1.267405 -0.035480 0.125830 -0.136660 -0.224990 
0.054060 16.559520 -9.001920 -3.715231 -40.500120 6.910401 -15.879719 11.102041 6.524169 17.227087 -8.723076 -52.397592 -11.251842 20.990589 60.467817 1.291673 12.477915 0.072888 0.428830 0.382780 0.478540 17.974192 -8.631450 2.572789 -22.130608 6.817838 -23.204620 16.285362 -18.538903 50.697610 -1.417142 -9.152692 1.060254 0.181710 -0.337860 0.031360 -2.677741 -3.405312 -9.596930 2.264868 3.274817 35.867029 0.203290 6.329727 -7.908362 2.179507 -8.101658 -11.949393 -19.904358 12.772894 39.157434 -6.766550 10.563160 -18.821290 -34.676088 -13.658977 1.741463 -30.791353 -3.505923 -3.821847 -31.180403 -15.560144 1.959661 -3.331646 3.053499 0.506590 -0.254230 0.356240 -0.010720 32.052611 22.873153 8.677979 32.689386 5.199490 -4.869546 29.418825 14.133660 1.456484 2.428316 -1.245471 -0.018810 0.113890 -0.149740 -0.233710 
0.050140 16.476870 -9.109230 -3.957420 -40.643646 6.382040 -15.940024 10.941804 6.636277 18.883733 -8.287619 -53.385538 -11.726541 22.086534 61.879734 1.401460 12.879698 -0.047941 0.433770 0.389840 0.483540 17.970185 -8.346116 2.707293 -22.307025 7.543814 -24.422902 17.120910 -19.951933 53.252814 -1.585210 -9.706001 0.902102 0.167750 -0.367440 0.032590 -2.666145 -3.569914 -9.757137 2.728984 3.023046 38.222540 0.223970 6.533376 -9.073733 2.474781 -8.138264 -12.609504 -20.574478 13.205654 40.469782 -6.962190 10.642290 -18.942840 -35.625517 -14.279203 1.910098 -30.088801 -2.354597 -4.256288 -30.898562 -15.926084 1.963027 -3.280007 3.059339 0.522860 -0.280130 0.382180 -0.013370 32.728881 23.554889 9.132021 32.581612 4.234346 -5.251368 28.032233 14.254528 1.377170 2.424082 -1.220470 -0.000600 0.101480 -0.156010 -0.231650 
0.051150 16.429400 -9.196520 -3.742833 -40.591716 5.702657 -15.976057 10.835007 6.723611 19.924457 -8.212719 -53.957727 -12.505493 22.844598 62.371644 1.458269 13.110326 -0.118833 0.424520 0.371210 0.495510 17.967951 -8.149622 2.802025 -22.683095 7.930467 -25.247528 17.757965 -20.997186 54.809461 -1.690581 -10.070944 0.795282 0.149200 -0.393010 0.027440 -2.652801 -3.704397 -9.879803 3.137221 2.680564 39.940221 0.040040 6.559401 -9.900573 2.820585 -8.020966 -13.374217 -21.117230 13.634001 42.338179 -7.606600 10.900440 -18.527370 -36.691727 -15.249984 2.098465 -29.686247 -1.916790 -4.304352 -29.443525 -14.987309 1.573042 -3.248327 3.026471 0.541910 -0.297230 0.395490 -0.029950 33.376880 24.406363 9.551301 32.830350 3.762658 -5.236732 25.790274 12.868991 0.979324 2.436968 -1.162143 0.000350 0.093090 -0.151380 -0.243980 
0.047270 16.411700 -9.265190 -3.676672 -40.702250 5.149515 -15.991078 10.810765 6.754018 20.528645 -8.102266 -54.097085 -12.602712 23.012857 62.601158 1.464438 13.179666 -0.145469 0.405700 0.340050 0.509680 17.965091 -8.049664 2.864219 -22.553476 8.230689 -25.779874 17.847121 -21.529513 55.972625 -1.754292 -10.287976 0.733825 0.126610 -0.411890 0.024990 -2.636215 -3.793136 -9.961149 3.640394 2.374598 40.823542 -0.310588 6.620747 -10.329963 3.225762 -7.530581 -13.995652 -20.686876 13.713339 44.464178 -8.558950 11.398230 -17.972160 -37.918434 -16.185926 2.268183 -29.943979 -1.784966 -4.169244 -26.661739 -13.339613 0.982821 -3.239230 2.964564 0.560370 -0.303280 0.405250 -0.049650 33.937091 25.009083 9.850194 33.755257 3.334709 -5.210541 22.760556 11.638208 0.660985 2.455587 -1.096473 -0.006670 0.085740 -0.143310 -0.261590 
0.033760 16.403200 -9.314270 -3.544127 -40.901092 4.837322 -16.001025 10.783812 6.791446 21.176544 -7.872721 -54.107533 -13.214050 23.358231 62.294542 1.472767 13.230304 -0.163528 0.393030 0.321090 0.512110 17.965905 -7.993182 2.889206 -22.104200 8.444519 -26.331462 17.295530 -21.654547 57.125552 -1.791023 -10.422933 0.699526 0.112700 -0.415980 0.024790 -2.635176 -3.831717 -10.010487 4.041629 2.026650 40.657983 -0.465471 6.453102 -10.247025 3.406966 -7.289776 -14.371490 -20.627238 14.094633 45.731501 -8.900450 11.901940 -17.389760 -38.655735 -16.691433 2.431135 -31.124265 -1.704138 -3.982762 -23.492390 -11.610509 0.437126 -3.252020 2.910385 0.567640 -0.302570 0.407350 -0.058970 34.347391 25.244697 9.988276 34.873916 2.871744 -5.294332 20.099070 11.041765 0.506634 2.469553 -1.056890 -0.010220 0.081600 -0.136170 -0.269210 
0.013520 16.429790 -9.353670 -3.188823 -41.218347 4.037643 -15.988918 10.884310 6.733045 21.118867 -7.663305 -53.443520 -13.038799 23.198074 62.083443 1.454979 13.163682 -0.153520 0.394560 0.324060 0.505920 17.963149 -8.018751 2.869471 -21.586905 8.590854 -26.154772 16.619845 -21.408949 57.750250 -1.795320 -10.439723 0.696668 0.112470 -0.415280 0.024760 -2.612589 -3.921606 -9.975633 4.344253 1.795026 40.557296 -0.213765 6.336272 -10.366316 3.338712 -7.600725 -14.425861 -21.999160 14.950636 46.472471 -8.863550 11.984280 -16.700070 -39.669484 -16.340697 2.267529 -32.497378 -1.504426 -3.816213 -20.766556 -10.202469 0.073508 -3.265044 2.882652 0.563160 -0.303430 0.404660 -0.060250 35.548958 24.890863 9.994801 35.259630 2.328265 -5.437480 17.476999 10.986964 0.454293 2.470139 -1.042141 -0.003950 0.078730 -0.131390 -0.264450 
